<svg>
    <symbol id="icon-arrow" viewBox="0 0 16 16" xmlns="http://www.w3.org/2000/svg">
        <g>
            <path d="M3 9.4l5-5 5 5-1.4 1.4-3.6-3.6-3.6 3.6z"/>
            <path d="M15 8c0 3.9-3.1 7-7 7s-7-3.1-7-7 3.1-7 7-7 7 3.1 7 7zM16 8c0-4.4-3.6-8-8-8s-8 3.6-8 8 3.6 8 8 8 8-3.6 8-8v0z"/>
        </g>
    </symbol>

    <symbol id="icon-logo" viewBox="0 0 100.208 100.208" xmlns="http://www.w3.org/2000/svg">
        <g>
            <path d="M50.104,0C22.432,0,0,22.432,0,50.104s22.432,50.104,50.104,50.104s50.104-22.432,50.104-50.104
		S77.776,0,50.104,0z M71.96,38.236c0,0,2.57,4.101,2.57,9.151l-2.57-0.848V38.236z M57.43,21.613c0,0,2.58,4.094,2.58,9.148
		l-2.58-0.68V21.613z M57.423,32.381c2.967,0.333,3.811,4.284,5.196,7.405c1.435,3.232,3.346,5.658,2.831,7.455
		c-0.934,3.232-4.044,4.413-7.179,4.008s-6.725-0.902-6.342-4.262C52.301,43.619,51.382,31.698,57.423,32.381z M44.106,21.072v8.564
		l-2.577,0.583C41.529,25.166,44.106,21.072,44.106,21.072z M38.988,37.195c1.535-1.997,2.545-5.068,4.978-5.093
		c6.61-0.05,3.711,12.218,3.443,15.604c-0.265,3.371-3.157,3.139-6.302,2.852c-3.157-0.286-5.111-0.82-6.148-4.019
		C34.157,44.074,36.35,40.62,38.988,37.195z M29.053,38.236v8.299l-2.577,0.848C26.476,42.334,29.053,38.236,29.053,38.236z
		 M29.336,66.67c-1.886-2.72-6.71-13.367-3.547-16.559c3.164-3.182,9.946,4.162,11.828,6.875c1.89,2.716,1.517,5.447-0.73,7.423
		C34.64,66.381,31.229,69.383,29.336,66.67z M64.96,74.762c-3.761,7.737-6.728,3.926-15.031,3.926
		c-8.296,0-11.066,3.89-15.028-3.926c-2.069-4.098,4.781-7.294,6.989-9.699c2.752-3.006,3.429-8.471,8.038-8.471
		c4.398,0,5.34,5.375,8.092,8.178C60.465,67.254,67.186,70.181,64.96,74.762z M71.606,66.595c-1.678,2.867-3.386,2.645-5.78,0.905
		c-2.401-1.739-6.424-5.787-4.742-8.657c0.737-1.26,3.361-1.56,5.472-3.547c2.706-2.548,5.121-6.546,7.337-4.924
		C77.847,53.264,73.291,63.729,71.606,66.595z"/>
        </g>
    </symbol>

    <symbol id="icon-web" viewBox="0 0 128 128" xmlns="http://www.w3.org/2000/svg">
        <g>
            <path d="M64,126c34.2,0,62-27.8,62-62S98.2,2,64,2S2,29.8,2,64S29.8,126,64,126z M16,88.7l25.2-0.2c2.8,10.1,7.5,19.9,13.9,28.7   C38,114.4,23.7,103.5,16,88.7z M47.6,47H79c2.3,11,2.3,22.3,0.2,33.3l-31.6,0.2C45.3,69.4,45.3,58,47.6,47z M63.3,114.9   c-6.3-8.1-10.9-17-13.7-26.4l27.5-0.2C74.2,97.7,69.6,106.7,63.3,114.9z M71.3,117.5c6.6-9,11.3-18.9,14.1-29.3l26.9-0.2   C104.5,103.7,89.3,115,71.3,117.5z M118,64c0,5.6-0.9,11-2.4,16l-28.3,0.2c2-11,1.9-22.2-0.2-33.2h28.1C117,52.3,118,58.1,118,64z    M111.8,39H85.2c-2.9-10-7.5-19.7-13.9-28.5C89,12.9,103.9,23.8,111.8,39z M76.9,39H49.7c2.9-9.2,7.4-17.9,13.6-25.9   C69.5,21.1,74,29.8,76.9,39z M55.1,10.8C48.8,19.5,44.2,29,41.4,39H16.2C23.9,24.3,38.1,13.6,55.1,10.8z M39.5,47   c-2.1,11.1-2.1,22.4-0.1,33.5l-26.7,0.2C10.9,75.4,10,69.8,10,64c0-5.9,1-11.7,2.8-17H39.5z"/>
        </g>
    </symbol>

    <symbol id="icon-github" viewBox="0 0 512 512" xmlns="http://www.w3.org/2000/svg">
        <g>
            <path d="M218.7,445.5c-6.6,0.7-12.2,1.4-17.8,2c-29.1,2.9-54.5-5-73.7-27.7c-6-7.1-9.4-16.3-14.5-24.2c-7.9-12.4-16-24.7-24.7-36.6   c-3-4.1-8.2-6.5-12.2-10c-1.3-1.1-1.7-3.2-2.6-4.9c1.8-0.7,3.5-1.9,5.3-2.1c23-2.1,39.2,8.5,50.5,27.6   c14.1,23.8,34.5,36.8,62.2,36.8c8,0,16-2.7,23.9-4.5c1.5-0.4,3.3-2.7,3.5-4.4c1.4-10.4,2.7-20.8,7.5-30.3c1.8-3.5,3.9-6.8,6-10.4   c-8.1-1.6-15.9-2.8-23.6-4.7c-35.5-9-64.8-26.8-81.8-60.6c-6.6-13.2-10.3-27.4-10.8-42.2c-0.8-22.8-0.5-45.7,4.1-68.2   c3.3-15.8,9.3-30.5,21.3-41.9c2.6-2.5,3.1-4.7,1.7-8.5c-6.7-18.7-7.4-37.7-1.7-56.8c1.2-4.1,2.3-8.2,3.5-12.5   c27.4,5.2,43.7,23.7,59,44.2c15.8-11.7,34.5-12.7,52.7-13.9c21.6-1.4,43.3-1.1,64.8,2.4c11.2,1.8,18.1,4.1,29,10.6   c9.4-9.7,18.2-19.5,27.9-28.4c7.7-7.1,17.3-11.6,27.7-14c2.9-0.7,4.4-0.4,5.6,2.8c8.1,22.1,9.3,44.1,0.4,66.2   c-1.2,3-1.1,5.1,1.4,7.5c14.4,13.7,21,31.4,23.2,50.5c2,17.7,3.1,35.5,3.1,53.3c0,25.3-7.5,48.5-23.4,68.4   c-11.2,14.1-25.7,24.2-42.1,31.8c-15.9,7.3-32.5,11.5-49.7,13.7c-0.4,0.1-0.8,0.4-1.5,0.7c11.8,16.9,13.7,35.9,13.5,55.6   c-0.3,28.7-0.2,57.3,0,86c0,4.5-1.3,5.6-5.7,5.6c-35.5-0.2-71-0.2-106.5,0c-4.4,0-5.8-1.4-5.8-5.7c0.2-15.5,0.1-31,0.1-46.5   C218.7,449.9,218.7,447.9,218.7,445.5z"/>
        </g>
    </symbol>

    <symbol id="icon-phone" viewBox="0 0 500 500" xmlns="http://www.w3.org/2000/svg">
        <g>
            <path d="M366.667,300c-33.334,33.333-33.334,66.666-66.667,66.666S233.333,333.333,200,300
		c-33.333-33.334-66.667-66.667-66.667-100c0-33.333,33.333-33.333,66.667-66.667S133.333,0,100,0S0,100,0,100
		c0,66.667,68.49,201.823,133.333,266.667S333.333,500,400,500c0,0,100-66.667,100-100C500,366.667,400,266.667,366.667,300z"/>
        </g>
    </symbol>

    <symbol id="icon-email" viewBox="0 0 512 512" xmlns="http://www.w3.org/2000/svg">
        <g>
            <path d="M448,64H64C28.656,64,0,92.656,0,128v256c0,35.344,28.656,64,64,64h384c35.344,0,64-28.656,64-64V128
		C512,92.656,483.344,64,448,64z M342.656,234.781l135.469-116.094c0.938,3,1.875,6,1.875,9.313v256
		c0,2.219-0.844,4.188-1.281,6.281L342.656,234.781z M448,96c2.125,0,4,0.813,6,1.219L256,266.938L58,97.219
		C60,96.813,61.875,96,64,96H448z M33.266,390.25C32.828,388.156,32,386.219,32,384V128c0-3.313,0.953-6.313,1.891-9.313
		L169.313,234.75L33.266,390.25z M64,416c-3.234,0-6.172-0.938-9.125-1.844l138.75-158.563l51.969,44.531
		C248.578,302.719,252.297,304,256,304s7.422-1.281,10.406-3.875l51.969-44.531l138.75,158.563C454.188,415.062,451.25,416,448,416
		H64z"/>
        </g>
    </symbol>

    <symbol id="icon-whatsapp" viewBox="-23 -21 682 682.66669" xmlns="http://www.w3.org/2000/svg">
        <g>
            <path d="m544.386719 93.007812c-59.875-59.945312-139.503907-92.9726558-224.335938-93.007812-174.804687 0-317.070312 142.261719-317.140625 317.113281-.023437 55.894531 14.578125 110.457031 42.332032 158.550781l-44.992188 164.335938 168.121094-44.101562c46.324218 25.269531 98.476562 38.585937 151.550781 38.601562h.132813c174.785156 0 317.066406-142.273438 317.132812-317.132812.035156-84.742188-32.921875-164.417969-92.800781-224.359376zm-224.335938 487.933594h-.109375c-47.296875-.019531-93.683594-12.730468-134.160156-36.742187l-9.621094-5.714844-99.765625 26.171875 26.628907-97.269531-6.269532-9.972657c-26.386718-41.96875-40.320312-90.476562-40.296875-140.28125.054688-145.332031 118.304688-263.570312 263.699219-263.570312 70.40625.023438 136.589844 27.476562 186.355469 77.300781s77.15625 116.050781 77.132812 186.484375c-.0625 145.34375-118.304687 263.59375-263.59375 263.59375zm144.585938-197.417968c-7.921875-3.96875-46.882813-23.132813-54.148438-25.78125-7.257812-2.644532-12.546875-3.960938-17.824219 3.96875-5.285156 7.929687-20.46875 25.78125-25.09375 31.066406-4.625 5.289062-9.242187 5.953125-17.167968 1.984375-7.925782-3.964844-33.457032-12.335938-63.726563-39.332031-23.554687-21.011719-39.457031-46.960938-44.082031-54.890626-4.617188-7.9375-.039062-11.8125 3.476562-16.171874 8.578126-10.652344 17.167969-21.820313 19.808594-27.105469 2.644532-5.289063 1.320313-9.917969-.664062-13.882813-1.976563-3.964844-17.824219-42.96875-24.425782-58.839844-6.4375-15.445312-12.964843-13.359374-17.832031-13.601562-4.617187-.230469-9.902343-.277344-15.1875-.277344-5.28125 0-13.867187 1.980469-21.132812 9.917969-7.261719 7.933594-27.730469 27.101563-27.730469 66.105469s28.394531 76.683594 32.355469 81.972656c3.960937 5.289062 55.878906 85.328125 135.367187 119.648438 18.90625 8.171874 33.664063 13.042968 45.175782 16.695312 18.984374 6.03125 36.253906 5.179688 49.910156 3.140625 15.226562-2.277344 46.878906-19.171875 53.488281-37.679687 6.601563-18.511719 6.601563-34.375 4.617187-37.683594-1.976562-3.304688-7.261718-5.285156-15.183593-9.253906zm0 0"/>
        </g>
    </symbol>

    <symbol id="icon-download" viewBox="0 0 451.111 451.111" xmlns="http://www.w3.org/2000/svg">
        <g>
            <path d="m225.556 354.445 145-145-48.333-48.333-64.444 64.444v-225.556h-64.444v225.556l-64.444-64.444-48.333 48.333z"/>
            <path d="m0 386.667h451.111v64.444h-451.111z"/>
        </g>
    </symbol>

    <symbol id="icon-html" viewBox="0 0 32 32" xmlns="http://www.w3.org/2000/svg">
        <g>
            <polygon points="5.902 27.201 3.655 2 28.345 2 26.095 27.197 15.985 30 5.902 27.201" style="fill:#e44f26"/>
            <polygon points="16 27.858 24.17 25.593 26.092 4.061 16 4.061 16 27.858" style="fill:#f1662a"/>
            <polygon
                    points="16 13.407 11.91 13.407 11.628 10.242 16 10.242 16 7.151 15.989 7.151 8.25 7.151 8.324 7.981 9.083 16.498 16 16.498 16 13.407"
                    style="fill:#ebebeb"/>
            <polygon
                    points="16 21.434 15.986 21.438 12.544 20.509 12.324 18.044 10.651 18.044 9.221 18.044 9.654 22.896 15.986 24.654 16 24.65 16 21.434"
                    style="fill:#ebebeb"/>
            <polygon
                    points="15.989 13.407 15.989 16.498 19.795 16.498 19.437 20.507 15.989 21.437 15.989 24.653 22.326 22.896 22.372 22.374 23.098 14.237 23.174 13.407 22.341 13.407 15.989 13.407"
                    style="fill:#fff"/>
            <polygon
                    points="15.989 7.151 15.989 9.071 15.989 10.235 15.989 10.242 23.445 10.242 23.445 10.242 23.455 10.242 23.517 9.548 23.658 7.981 23.732 7.151 15.989 7.151"
                    style="fill:#fff"/>
        </g>
    </symbol>

    <symbol id="icon-css" viewBox="0 0 32 32" xmlns="http://www.w3.org/2000/svg">
        <g>
            <polygon points="5.902 27.201 3.656 2 28.344 2 26.095 27.197 15.985 30 5.902 27.201" style="fill:#1572b6"/>
            <polygon points="16 27.858 24.17 25.593 26.092 4.061 16 4.061 16 27.858" style="fill:#33a9dc"/>
            <polygon
                    points="16 13.191 20.09 13.191 20.372 10.026 16 10.026 16 6.935 16.011 6.935 23.75 6.935 23.676 7.764 22.917 16.282 16 16.282 16 13.191"
                    style="fill:#fff"/>
            <polygon
                    points="16.019 21.218 16.005 21.222 12.563 20.292 12.343 17.827 10.67 17.827 9.24 17.827 9.673 22.68 16.004 24.438 16.019 24.434 16.019 21.218"
                    style="fill:#ebebeb"/>
            <polygon
                    points="19.827 16.151 19.455 20.29 16.008 21.22 16.008 24.436 22.344 22.68 22.391 22.158 22.928 16.151 19.827 16.151"
                    style="fill:#fff"/>
            <polygon
                    points="16.011 6.935 16.011 8.855 16.011 10.018 16.011 10.026 8.555 10.026 8.555 10.026 8.545 10.026 8.483 9.331 8.342 7.764 8.268 6.935 16.011 6.935"
                    style="fill:#ebebeb"/>
            <polygon
                    points="16 13.191 16 15.111 16 16.274 16 16.282 12.611 16.282 12.611 16.282 12.601 16.282 12.539 15.587 12.399 14.02 12.325 13.191 16 13.191"
                    style="fill:#ebebeb"/>
        </g>
    </symbol>

    <symbol id="icon-sass" viewBox="0 0 128 128" xmlns="http://www.w3.org/2000/svg">
        <g>
            <path fill="#CB6699"
                  d="M1.219 56.156c0 .703.207 1.167.323 1.618.756 2.933 2.381 5.45 4.309 7.746 2.746 3.272 6.109 5.906 9.554 8.383 2.988 2.148 6.037 4.248 9.037 6.38.515.366 1.002.787 1.561 1.236-.481.26-.881.489-1.297.7-3.959 2.008-7.768 4.259-11.279 6.986-2.116 1.644-4.162 3.391-5.607 5.674-2.325 3.672-3.148 7.584-1.415 11.761.506 1.22 1.278 2.274 2.367 3.053.353.252.749.502 1.162.6 1.058.249 2.136.412 3.207.609l3.033-.002c3.354-.299 6.407-1.448 9.166-3.352 4.312-2.976 7.217-6.966 8.466-12.087.908-3.722.945-7.448-.125-11.153-.099-.344-.224-.681-.354-1.014-.13-.333-.283-.657-.463-1.072l6.876-3.954.103.088c-.125.409-.258.817-.371 1.23-.817 2.984-1.36 6.02-1.165 9.117.208 3.3 1.129 6.389 3.061 9.146 1.562 2.23 5.284 2.313 6.944.075.589-.795 1.16-1.626 1.589-2.513 1.121-2.315 2.159-4.671 3.23-7.011l.187-.428c-.077 1.108-.167 2.081-.208 3.055-.064 1.521.025 3.033.545 4.48.445 1.238 1.202 2.163 2.62 2.326.97.111 1.743-.333 2.456-.896 1.114-.879 2.019-1.965 2.691-3.199 1.901-3.491 3.853-6.961 5.576-10.54 1.864-3.871 3.494-7.855 5.225-11.792l.286-.698c.409 1.607.694 3.181 1.219 4.671.61 1.729 1.365 3.417 2.187 5.058.389.775.344 1.278-.195 1.928-2.256 2.72-4.473 5.473-6.692 8.223-.491.607-.98 1.225-1.389 1.888-.247.403-.411.894-.48 1.364-.133.898.422 1.764 1.383 1.971.878.189 1.813.259 2.708.193 3.097-.228 5.909-1.315 8.395-3.157 3.221-2.386 4.255-5.642 3.475-9.501-.211-1.047-.584-2.065-.947-3.074-.163-.455-.174-.774.123-1.198 2.575-3.677 4.775-7.578 6.821-11.569.081-.157.164-.314.306-.482.663 3.45 1.661 6.775 3.449 9.792-.912.879-1.815 1.676-2.632 2.554-1.799 1.934-3.359 4.034-4.173 6.595-.35 1.104-.619 2.226-.463 3.405.242 1.831 1.742 3.021 3.543 2.604 3.854-.892 7.181-2.708 9.612-5.925 1.636-2.166 1.785-4.582 1.1-7.113-.188-.688-.411-1.365-.651-2.154.951-.295 1.878-.649 2.837-.868 4.979-1.136 9.904-.938 14.702.86 2.801 1.05 5.064 2.807 6.406 5.571 1.639 3.379.733 6.585-2.452 8.721-.297.199-.637.356-.883.605-.151.153-.242.459-.205.67.021.123.346.277.533.275 1.047-.008 1.896-.557 2.711-1.121 2.042-1.413 3.532-3.314 3.853-5.817l.063-.188-.077-1.63c-.031-.094.023-.187.016-.258-.434-3.645-2.381-6.472-5.213-8.688-3.28-2.565-7.153-3.621-11.249-3.788-3.338-.136-6.619.36-9.765 1.503-.897.325-1.786.71-2.688 1.073-.121-.219-.251-.429-.358-.646-.926-1.896-2.048-3.708-2.296-5.882-.176-1.544-.392-3.086-.025-4.613.353-1.469.813-2.913 1.246-4.362.223-.746.066-1.164-.646-1.5-.248-.117-.518-.219-.786-.258-1.75-.254-3.476-.109-5.171.384-.6.175-1.036.511-1.169 1.175-.076.381-.231.746-.339 1.122-.443 1.563-.757 3.156-1.473 4.645-1.794 3.735-3.842 7.329-5.938 10.897-.227.385-.466.763-.752 1.23-.736-1.54-1.521-2.922-1.759-4.542-.269-1.832-.481-3.661-.025-5.479.339-1.356.782-2.687 1.19-4.025.193-.636.104-.97-.472-1.305-.291-.169-.62-.319-.948-.368-1.815-.269-3.603-.128-5.354.438-.543.176-.828.527-.994 1.087-.488 1.652-.904 3.344-1.589 4.915-2.774 6.36-5.628 12.687-8.479 19.013-.595 1.321-1.292 2.596-1.963 3.882-.17.326-.418.613-.63.919-.17-.201-.236-.339-.235-.477.005-.813-.092-1.65.063-2.436.469-2.378 1.009-4.743 1.578-7.099.47-1.946 1.017-3.874 1.538-5.807.175-.647.178-1.252-.287-1.796-.781-.911-2.413-1.111-3.381-.409l-.428.242.083-.69c.204-1.479.245-2.953-.161-4.41-.506-1.816-1.802-2.861-3.686-2.803-.878.027-1.8.177-2.613.497-3.419 1.34-6.048 3.713-8.286 6.568-.203.259-.471.495-.757.654-2.893 1.604-5.795 3.188-8.696 4.778l-3.229 1.769c-.866-.826-1.653-1.683-2.546-2.41-2.727-2.224-5.498-4.393-8.244-6.592-2.434-1.949-4.792-3.979-6.596-6.56-1.342-1.92-2.207-4.021-2.29-6.395-.105-3.025.753-5.789 2.293-8.362 1.97-3.292 4.657-5.934 7.611-8.327 3.125-2.53 6.505-4.678 10.008-6.639 4.901-2.743 9.942-5.171 15.347-6.774 5.542-1.644 11.165-2.585 16.965-1.929 2.28.258 4.494.78 6.527 1.895 1.557.853 2.834 1.97 3.428 3.716.586 1.718.568 3.459.162 5.204-.825 3.534-2.76 6.447-5.195 9.05-3.994 4.267-8.866 7.172-14.351 9.091-3.165 1.107-6.421 1.802-9.765 2.083-2.729.229-5.401-.013-7.985-.962-1.711-.629-3.201-1.591-4.399-2.987-.214-.25-.488-.521-.887-.287-.391.23-.46.602-.329.979.219.626.421 1.278.762 1.838.857 1.405 2.107 2.424 3.483 3.298 2.643 1.681 5.597 2.246 8.66 2.377 4.648.201 9.183-.493 13.654-1.74 6.383-1.78 11.933-4.924 16.384-9.884 3.706-4.13 6.353-8.791 6.92-14.419.277-2.747-.018-5.438-1.304-7.944-1.395-2.715-3.613-4.734-6.265-6.125-3.862-2.025-8.03-3.204-12.332-3.204h-4.31c-5.21 0-10.247 1.493-15.143 3.274-3.706 1.349-7.34 2.941-10.868 4.703-7.683 3.839-14.838 8.468-20.715 14.833-2.928 3.171-5.407 6.67-6.833 10.79-.417 1.206-.813 2.499-1.111 3.746m27.839 36.013c-.333 4.459-2.354 8.074-5.657 11.002-1.858 1.646-3.989 2.818-6.471 3.23-.9.149-1.821.185-2.694-.188-1.245-.532-1.524-1.637-1.548-2.814-.037-1.876.62-3.572 1.521-5.186 1.176-2.104 2.9-3.708 4.741-5.206 2.9-2.361 6.046-4.359 9.268-6.245l.243-.1c.498 1.84.735 3.657.597 5.507zm25.158-19.379c-.235 1.424-.529 2.849-.945 4.229-1.438 4.777-3.285 9.406-5.282 13.973-.369.845-.906 1.616-1.373 2.417-.072.124-.179.231-.283.334-.578.571-1.126.541-1.418-.206-.34-.868-.549-1.797-.729-2.716-.121-.617-.092-1.265-.13-1.897.039-4.494 1.41-8.578 3.736-12.38.959-1.568 2.003-3.062 3.598-4.054.49-.305 1.04-.55 1.595-.706.85-.239 1.372.154 1.231 1.006zm17.164 21.868l6.169-7.203c.257 2.675-4.29 8.015-6.169 7.203zm19.703-4.847c-.436.25-.911.43-1.358.661-.409.212-.544-.002-.556-.354-.008-.239.027-.489.093-.721.833-2.938 2.366-5.446 4.647-7.486l.16-.082c1.085 3.035-.169 6.368-2.986 7.982z"/>
        </g>
    </symbol>

    <symbol id="icon-bootstrap" viewBox="0 0 128 128" xmlns="http://www.w3.org/2000/svg">
        <g>
            <path fill="#5B4282"
                  d="M75.701 65.603c-2.334-.768-5.694-.603-10.08-.603h-17.621v23h18.844c2.944 0 5.012-.315 6.203-.535 2.099-.376 3.854-1.104 5.264-1.982 1.409-.876 2.568-2.205 3.478-3.881.908-1.676 1.363-3.637 1.363-5.83 0-2.568-.658-4.54-1.975-6.436-1.316-1.896-3.141-2.965-5.476-3.733zM73.282 55.087c2.317-.688 4.064-1.89 5.239-3.487 1.176-1.598 1.763-3.631 1.763-6.044 0-2.286-.549-4.314-1.646-6.054s-2.662-2.413-4.699-3.056c-2.037-.641-5.53-.446-10.48-.446h-15.459v20h16.587c4.042 0 6.939-.38 8.695-.913zM126 18.625c0-9.182-7.443-16.625-16.625-16.625h-91.75c-9.182 0-16.625 7.443-16.625 16.625v91.75c0 9.182 7.443 16.625 16.625 16.625h91.75c9.182 0 16.625-7.443 16.625-16.625v-91.75zm-35.447 66.12c-1.362 2.773-3.047 4.911-5.052 6.415-2.006 1.504-4.521 2.78-7.544 3.548-3.022.769-6.728 1.292-11.113 1.292h-27.844v-69h27.42c5.264 0 9.485.609 12.665 2.002 3.181 1.395 5.671 3.497 7.474 6.395 1.801 2.898 2.702 5.907 2.702 9.071 0 2.945-.8 5.708-2.397 8.308-1.598 2.602-4.011 4.694-7.237 6.292 4.166 1.222 7.37 3.304 9.61 6.248 2.24 2.945 3.36 6.422 3.36 10.432 0 3.227-.681 6.225-2.044 8.997z"/>
        </g>

    </symbol>

    <symbol id="icon-gulp" viewBox="0 0 128 128" xmlns="http://www.w3.org/2000/svg">
        <g>
            <path fill-rule="evenodd" clip-rule="evenodd" fill="#EB4A4B"
                  d="M36.965 35.459c.877 9.232 1.747 18.412 2.637 27.798 1.451-2.495 2.501-4.888 4.085-6.848 1.475-1.826 3.334-3.511 5.357-4.678 2.641-1.524 6.104-.089 6.96 2.614.23.725-.319 1.697-.511 2.556-.646-.341-1.479-.529-1.901-1.051-1.793-2.217-2.873-2.479-4.856-.563-3.699 3.576-5.779 8.056-6.573 13.091-.153.974.456 2.067.713 3.105 1.011-.348 2.185-.476 3.002-1.084 2.656-1.977 4.302-4.666 5.21-7.88.197-.696 1.265-1.145 1.933-1.708.32.658 1.05 1.433.897 1.954-1.407 4.84-2.934 9.649-4.536 14.429-.162.484-1.051.725-1.604 1.079-.223-.636-.692-1.302-.617-1.901.168-1.358.605-2.683.91-3.927l-7.24 3.333c.405 4.622.825 9.807 1.323 14.985.382 3.954 1.029 4.978 4.923 5.728 4.544.875 9.173 1.434 13.792 1.774 6.825.503 13.59-.119 20.23-1.904 2.472-.664 3.458-2.29 3.635-4.717.162-2.235.524-4.456.775-6.685.493-4.391.972-8.783 1.476-13.358-1.667 1.056-2.978 2.238-4.511 2.739-1.116.365-2.524-.169-3.803-.303.245-1.174.23-2.497.796-3.487.922-1.618 2.224-3.021 3.364-4.515l-.491-.591c-.817.483-1.832.8-2.413 1.485-1.182 1.394-2.339 2.886-3.13 4.52-1.324 2.735-2.333 5.622-3.518 8.426-.515 1.216-.959 3.076-2.684 2.366-1.845-.761-.547-2.386-.114-3.542.689-1.844 1.599-3.606 2.215-4.962-1.746.208-3.516.459-5.294.614-.752.064-1.646-.348-2.261-.07-2.045.924-3.341.553-3.766-1.711-.947.615-1.749 1.448-2.694 1.672-1.147.273-2.703.452-3.543-.121-.673-.459-.918-2.184-.688-3.196.457-2.012 1.311-3.946 2.122-5.859.502-1.185 1.007-3.077 2.701-2.253 1.674.813.154 2.185-.232 3.286-.599 1.702-1.209 3.401-1.813 5.101l.96.58c.914-.794 2.053-1.441 2.693-2.415 1.048-1.592 1.681-3.452 2.673-5.086.411-.677 1.296-1.065 1.967-1.584.136.862.462 1.748.354 2.58-.107.841-.698 1.61-.981 2.442-.425 1.246-.768 2.52-1.2 3.969 2.043.078 2.918-.782 3.495-2.299 1.826-4.793 3.672-9.581 5.679-14.3.343-.808 1.509-1.264 2.296-1.884.091.974.525 2.078.216 2.899-1.645 4.349-3.492 8.62-5.228 12.935-.293.727-.387 1.534-.572 2.304 3.059-1.375 5.612-2.895 6.544-6.146.228-.79 1.162-1.377 1.771-2.058l1.416 1.5c.43-.362.824-.774 1.291-1.075 1.47-.947 3.053-1.782 4.603-.315 1.604 1.517.39 2.995-.448 4.307-.912 1.431-2.029 2.73-3.057 4.086 2.312-1.49 5.469-2.158 5.889-5.378 1.024-7.865 1.924-15.746 2.837-23.625.271-2.332.416-4.679.627-7.109-18.21 4.409-36.029 4.436-54.088-.069zM44.781 96.828c.877 2.317 2.209 4.593 2.558 7.011.737 5.147.924 10.372 1.446 15.554.076.755.565 1.792 1.175 2.124 8.98 4.88 18.047 5.726 27.209.389 1.367-.796 1.62-1.847 1.797-3.325.857-7.181-1.051-14.798 3.54-21.56-12.856 3.189-25.403 3.288-37.725-.193zM75.772 36.748c4.362-.421 8.671-1.445 12.985-2.291.813-.159 1.535-.778 2.299-1.185-1.007-.885-1.878-1.311-2.788-1.418-4.53-.535-9.076-.947-13.603-1.508-.684-.085-1.905-.929-1.854-1.083 1.321-3.98 1.256-8.485 4.254-11.839 3.789-4.24 7.617-8.443 11.416-12.648-2.826-3.04-2.864-3.044-5.425-.383-1.448 1.504-2.771 3.15-4.342 4.512-5.813 5.038-9.896 11.005-10.692 18.872-.183 1.805-1.174 2.457-3.069 2.485-6.256.091-12.519.263-18.761.674-3.093.203-6.148.997-9.221 1.523l-.028 1.149c1.923.593 3.809 1.372 5.773 1.749 10.944 2.098 21.991 2.458 33.056 1.391zm-3.496-2.748c-2.477 2-4.524 2-6.501 0h6.501z"/>
        </g>
    </symbol>

    <symbol id="icon-babel" viewBox="0 0 32 32" xmlns="http://www.w3.org/2000/svg">
        <g>
            <path d="M26.881,11.231a1.512,1.512,0,0,1-.352.744l-.114-.073a2.473,2.473,0,0,0,.178-.543l-.032-.05c-.041,0-.1.114-.164.333l-.059,0a.258.258,0,0,0-.032-.105l-.027,0c-.539,1.5-.781,2.2-1.279,3.357-.091.3-.169.461-.237.493a.048.048,0,0,0,.059.046.736.736,0,0,1-.1.429,4.451,4.451,0,0,1-.461,1.092l.05.315a.045.045,0,0,1-.05.055l-.055,0q-.014-.13-.1-.123l-.027,0a1.328,1.328,0,0,0-.16.384l.055,0a.178.178,0,0,0,.1-.169l.11-.009.059.023a.324.324,0,0,0-.069.187l.027.05-.069.164,0,.027a.34.34,0,0,1,.206.059.394.394,0,0,0,.164-.064c.064,0,.292-.009.694-.009l.2-.069c.247,0,.283,0,.5-.014l.087-.009.046-.032,0,.027a1.309,1.309,0,0,1,.411.018l0,.027-.123.009,0,.05a.177.177,0,0,0,.1-.037c.032,0,.05.014.055.05a.946.946,0,0,0-.169.037l-.055-.018a.537.537,0,0,1-.123.032l-.087-.018a.025.025,0,0,1-.018.027c0,.032.018.05.05.046l.105-.009-.046-.018c0,.014.009.023.027.023l.452-.041L26.8,17.9a.022.022,0,0,0,.023.023l.082-.032.155-.014c.123-.009.119-.018.379-.059,0-.014,0-.023.018-.023v.023a2.32,2.32,0,0,0,.557-.114l-.023-.055a.915.915,0,0,1-.21.023l-.379.018,0-.027.21-.027.078,0,.041-.032,0,.027a7.333,7.333,0,0,0,1.786-.242c.073,0,.069-.069.114-.2a.134.134,0,0,1-.073-.018,2.052,2.052,0,0,1-.393.059c-.018,0-.032-.014-.041-.05v-.023l.21.009a.524.524,0,0,0,.228-.073c.023.014-.018.027,0,.023l.037,0c.023,0,.032-.018.032-.055l-.023-.05a.683.683,0,0,0-.324.082l0-.027-.174.018c0-.055-.018-.078-.041-.078l-.091.009c-.105.009-.155,0-.206.046,0-.018-.009-.027-.018-.027l-.1.009-.059.032c0-.018-.009-.027-.018-.027l-.037.032,0-.027L28.4,17.04l-.032,0,0,.05.073.018.064,0a.15.15,0,0,0,.078.018l.059-.027v.023a4.743,4.743,0,0,1-.548.105.111.111,0,0,0-.055-.023c-.023.023.027,0,.014,0a.048.048,0,0,1-.059-.046l.114-.014a.684.684,0,0,0,.078.023c.091-.046.1-.064.146-.069l0-.05a2.986,2.986,0,0,1-.594.055h-.018l0-.05c.516-.064.343-.027.516-.078,0,.018.009.027.018.027a.108.108,0,0,1,.073-.032l.037,0a1.83,1.83,0,0,0,.6-.078v.023l.059-.027.055,0c0-.055.078-.059.1-.064l0-.055c-.626.128-.79.091-.964.142v-.023a.72.72,0,0,1-.21.018.091.091,0,0,0-.05.032c0-.018-.009-.027-.023-.027s-.014.009-.037.032l.037-.032-.543.087a.022.022,0,0,0-.023-.023,2.542,2.542,0,0,1-.571.1.133.133,0,0,0-.069.027c0-.014-.009-.023-.027-.023l-.228.018-.151.037c0-.014-.009-.023-.027-.023a1.274,1.274,0,0,1-.219.041h0c-.037,0,.018-.009-.009-.023L26,17.154c-.069,0-.032,0-.26,0-.4.05-.356.055-.4.059l-.151-.009c0,.014,0,.023-.023.027q-.253-.034-.26-.082c.023-.16.059-.242.119-.251l.027,0-.027.055.027,0c.055-.027.078-.055.078-.082l0-.055-.055,0,0-.05a.2.2,0,0,1,.014-.105l.123-.2,0,.05.059,0,0-.05-.032-.05a.192.192,0,0,1,.105-.059l0-.027-.078,0,0-.078a2.393,2.393,0,0,0,.228-.571l.055.023c.037,0,.055-.023.05-.059l-.055,0V15.62a.214.214,0,0,1,.018-.11.335.335,0,0,0,.114-.274.024.024,0,0,1,.027.027c.073-.041.128-.151.169-.333a10.563,10.563,0,0,0,.548-1.393,7.884,7.884,0,0,0,.5-1.649l-.055,0a.17.17,0,0,1-.023.105.3.3,0,0,0-.087-.023v-.023a.633.633,0,0,1,.137-.384H26.9l.046.178.055,0c0-.014.014-.082.041-.215,0-.027-.023-.041-.064-.046l-.05.032c0-.037,0-.132,0-.292l-.05.009Zm-.658.79.027,0c-.041.073-.073.114-.105.119l0-.078A.207.207,0,0,0,26.223,12.021Zm-.228.548c.055-.224.11-.352.16-.384l0,.027c-.027.21-.073.315-.137.324l.009.132a.262.262,0,0,0-.069.164l-.027,0-.014-.183c.027,0,.055-.032.073-.087Zm-.087.3a.653.653,0,0,1-.059.215l-.027,0,0-.078C25.848,12.916,25.88,12.87,25.908,12.866Zm-1.5,3.32.027.05q.062-.007.055-.055l0-.027-.027,0-.05.027Zm.722.6v.023c.041,0,.082-.078.119-.219l-.055-.018a.963.963,0,0,0-.064.215Zm4.622.16v.023l-.046.055.087-.032H29.8l0-.05h-.018l-.032.027c0-.014.1-.041.023-.055C29.753,16.935,29.79,16.939,29.749,16.944Zm.178.164.123-.009c0-.032-.082-.041-.11-.041h-.018l0,.05Zm-2.183.046.037.046c0-.014,0-.023.018-.023l.027.05-.114-.014C27.7,17.177,27.716,17.159,27.744,17.154Zm-.374.041a.058.058,0,0,1,.069.059H27.31v-.023A.147.147,0,0,0,27.369,17.2Zm.292-.014,0,.027-.105.009,0-.027Zm-1.06.11c0,.014.009.023.027.023.169-.032.151-.037.233-.046.027,0,.041.014.046.046l-.47.041.046.023,0-.027-.178.014,0-.027.16-.014.146-.032Zm.484-.041v.023c-.014,0,.046,0,.018.027a.909.909,0,0,0-.178-.014v-.023Zm.119-.014v.023l-.087.009v-.023Zm-2.923.466,0,.078c-.027,0-.05-.014-.059-.05v-.023l.055,0Zm3.909-.069,0,.05.091-.009-.037-.023,0,.027.091-.037c.626-.069.7-.041.69-.114v-.023a3.757,3.757,0,0,1-.845.128Zm.977-.087.091.018,0-.05-.091-.018Zm-2.7.178c.027.014-.032.027,0,.023l.32-.027,0,.027a.357.357,0,0,0-.169.041.024.024,0,0,0-.027-.027l-.137.014,0-.027c.037,0-.018,0,.009-.023Zm1.48-.037.027.05c.105-.023.046-.018.073-.041,0,.018.009.027.018.027l.073,0,0-.055-.192,0,0,.027Zm-1.809.2h-.018l0-.05h.018Zm-1.429.174,0,.027.84-.069,0-.05-.671.055L24.734,18Zm.936-.05h.009l0-.05h-.009ZM12.855,13.6a10.257,10.257,0,0,0-.923,1.174c-.242.251-.361.4-.347.452-.064.041-.091.082-.082.128a.028.028,0,0,1-.037-.023.713.713,0,0,1-.461.324l-.215.05c-.027,0-.041.027-.041.064l0,.027.082-.018,0,.023-.183.069-.324.073-.169.009c-.023.023.132,0,.073.014l-.21.05c-.128.032-.2.018-.21-.032l-.023,0c.014.05,0,.082-.037.091l.041-.009-.018-.078-.384.091.041.018c0-.018-.023-.023-.059-.014l-.05.041-.059-.014a.447.447,0,0,1-.1.05l-.059-.014c-.16.091-.041.091-.05.091l.014.05.091-.023.142-.009-.014.059c-.521.137-.142.059-.283.091l-.027,0,.014.05.082-.018,0,.027a.383.383,0,0,0-.183.069l0-.027a.793.793,0,0,0-.411.311c.023.1-.274.224,1.123-.1.1,0,.151,0,.164-.009,0-.018,0-.027.023-.032.155-.018.082.009.178-.014l.3-.069-.064.037c0-.014,0-.023.018-.027a.244.244,0,0,0,.114,0l.018.078L9.17,18.574,8.9,18.9l-.128.434.023,0,.128-.055-.041.169.014.05.037.046c-.018,0-.023.014-.018.032l0,.027.055-.014c.078-.069.11-.132.1-.187a.666.666,0,0,0,.169.014l0,.027q-.075.021-.082.123l0,.027.027,0c.434-.47,1.489-2.083,2.338-3.179q-.041-.178,1.329-.493l.027,0a2.85,2.85,0,0,1-.21,1.041,3.159,3.159,0,0,0-.16.543,4.04,4.04,0,0,0-.206.717L12,19.273a9.418,9.418,0,0,0-.48,1.717A.213.213,0,0,1,11.6,21l.046-.041c0,.018.014.023.037.023l-.018-.078.142,0c.041-.009.078-.064.105-.16,0-.142.023-.219.087-.237a2.292,2.292,0,0,1,.16-.516,2.3,2.3,0,0,1,.183-.58c.123-.438.21-.667.269-.68l.014.055-.087.233a11.35,11.35,0,0,1-.475,1.64l.046.2.027,0a42.59,42.59,0,0,0,1.667-4.932.647.647,0,0,1,.311-.5l-.041-.041,0-.023a.277.277,0,0,0,.174-.1q-.007-.027-.219-.082l.429-1.836a12.323,12.323,0,0,0,.26-1.448l0-.027a.99.99,0,0,1-.251-.233v-.11l0-.023-.023,0c-.265.4-.795,1.1-1.576,2.1Zm.607.416a1.169,1.169,0,0,1-.105.534c-.027.329-.146.516-.352.566l0-.027-.183.069-.082.018a.193.193,0,0,1-.114,0l-.018-.073A10.6,10.6,0,0,1,13.4,14l.064.009Zm-.42,1.142.059-.014.014.05c-.288.087-.448.132-.48.142a.207.207,0,0,0-.078.046c0-.018-.041-.018-.114,0-.014-.05.187-.123.6-.219Zm-2.836.767.064-.014-.014-.055-.064.014Zm.836-.219.014.05-.137.009,0-.027.128-.032Zm-1.6.525,0,.027-.087.018,0-.027Zm-.16.333,0,.023-.105.023-.014-.05.114,0Zm.251-.055,0,.023-.192.046,0-.023Zm.333-.055,0,.027-.5.114-.014-.05c.292-.05.26-.032.511-.091Zm2.516-.585.041.046a.28.28,0,0,0-.128.055l-.059-.009a1.565,1.565,0,0,1-.237.078l-.055.014a.053.053,0,0,1-.069-.037l.379-.087.128-.059Zm.269-.059.269-.064,0,.027a1.513,1.513,0,0,0-.343.11l0-.027A.189.189,0,0,0,12.654,15.807Zm-2.832.767.128-.027.014.05c-.055.014-.014.014-.082.046a1.305,1.305,0,0,0-.315.046l0-.027Zm.347-.059c.037-.009.059,0,.064.041l-.078.018q-.048.014-.069-.041l.082-.018ZM8.741,19.4l0,.027c.037-.009.05-.027.041-.064l0-.027A.051.051,0,0,0,8.741,19.4Zm.11.457a.046.046,0,0,0,.064.037c.037-.009.05-.027.041-.064l0-.027-.055.014-.046.041Zm15.294-7.9.206-.058c.082.009.123.027.123.05a1,1,0,0,1,.26-.055l0-.032-.21-.009-.411.069h0l-.178-.014q0,.021.054.057Zm-12.38,8.683a.046.046,0,0,1,.064.037l0,.027-.105.023a.176.176,0,0,0,0-.082l.032,0Zm4.229-8.449a8.912,8.912,0,0,1-.808.511l0,.05a.194.194,0,0,0,.082-.037.048.048,0,0,1,.059.046l.05-.027H15.4v.023a2.885,2.885,0,0,1-.562.438l.027.055h-.023l-.059-.023c0,.018-.023.032-.078.037v.023l.059.073a.2.2,0,0,1-.087-.023.536.536,0,0,0-.361.265l.027.05a.74.74,0,0,1,.183-.146l0,.078a.194.194,0,0,0-.082.037l.069.1a2.075,2.075,0,0,1,.406-.347c.073.023.114.046.114.069l.055,0a4.427,4.427,0,0,1,1.21-.649l0,.05c-.073.11-.123.164-.151.169a.259.259,0,0,0,.032.1,9.748,9.748,0,0,1-.539,1.37,37.954,37.954,0,0,1-2.1,4.352.162.162,0,0,0,.037.078.678.678,0,0,0,.265-.1h.023l0,.05.059,0,.05-.027c0,.014.018.023.055.018l0,.055a.517.517,0,0,1-.087.237,1.165,1.165,0,0,0-.187.406l0,.027.055,0a3.247,3.247,0,0,0,.516-.749,8.532,8.532,0,0,0,1.516-.571,1.442,1.442,0,0,0,.8-.274l0-.027-.137.041-.027,0,0-.027a1.146,1.146,0,0,0,.534-.174c.5-.388.881-.662,1.142-.822.795-.585,1.169-1.142,1.123-1.681a3.132,3.132,0,0,0-.525-.658q-.007-.11.356-.315l.694-.6a1.736,1.736,0,0,0,.274-.959l-.009-.1c-.027-.306-.251-.553-.671-.744a2.7,2.7,0,0,0-1.343-.279,7.608,7.608,0,0,0-2.083.566Zm3.718.037-.027.055-.767-.324c.516.023.781.11.795.269ZM16.6,14.368c.055-.288.114-.448.178-.484l.58-1.3c0-.078.114-.142.365-.187l.082-.009,0,.078c.247-.041.4-.064.461-.069.457-.041.694.055.712.274l.055,0-.009-.123.055,0a.345.345,0,0,1,.21.265.463.463,0,0,1-.11.274c-.037,0-.055-.023-.059-.073l-.055,0-.018.155c-.233.352-.4.53-.5.539q-.137.192-.178.192a3.082,3.082,0,0,1-.594.443,7.621,7.621,0,0,0-1.2.466.221.221,0,0,0-.11-.014l0-.05a.66.66,0,0,1,.132-.374Zm3.188-1.6,0,.055c-.027,0-.078-.082-.16-.247l0-.05C19.674,12.523,19.729,12.605,19.783,12.77Zm-5.06.621,0,.027a.241.241,0,0,0-.082.032h-.023l0-.05ZM16.4,13.35l0,.078c-.027,0-.059.041-.1.11l0-.05a.266.266,0,0,0,.069-.137Zm-.26.539.009.1-.027,0-.009-.1Zm-.064.187q-.007.13-.069.137l-.027,0a.248.248,0,0,0,.041-.137l.055,0Zm-.119.269,0,.027-.046.082-.055,0,0-.027c.055,0,.082-.032.078-.087Zm-.114.242-.018.132H15.8l-.009-.132Zm2.813.1.114.069a.045.045,0,0,1-.05.055.182.182,0,0,0-.114-.041v-.078l.05,0Zm-2.2.292,0,.05-.11.009,0-.05Zm1.777.187c.078.037.114.069.119.1v.023a.242.242,0,0,1-.206-.114Zm-2.288.562a6.072,6.072,0,0,0,1.471-.438l.169-.014a.946.946,0,0,1,.758.2l.009.1q-.185.534-.411.63l-.69.557a6.493,6.493,0,0,1-.84.511,6.267,6.267,0,0,1-1.534.7l-.027,0q.027-.144,1.1-2.252Zm.744-.3,0,.027-.11.009,0-.027Zm2.489-.114.018.21c-.027.05-.05.078-.078.082l-.032-.356C19.144,15.268,19.176,15.291,19.176,15.314ZM14.961,17.1c-.037.174-.073.265-.11.265v-.023A.267.267,0,0,1,14.961,17.1Zm.69.977a8.4,8.4,0,0,0,1.658-.868l0,.05c0,.023-.073.091-.233.2a5,5,0,0,0-.813.457c-.5.174-.744.283-.74.324a7.544,7.544,0,0,0-.872.384.26.26,0,0,1-.142-.041.216.216,0,0,1,.119-.215.5.5,0,0,1,.219.032,2.557,2.557,0,0,1,.429-.142l0-.05-.169.014A1.9,1.9,0,0,1,15.582,18l.082-.009v.023c-.142.014-.219.055-.237.128a.048.048,0,0,0,.059.046c.114-.055.164-.1.164-.11Zm-.854-.626v.023a.047.047,0,0,1-.05.059l0-.027c0-.023.018-.046.055-.055Zm1.3.356a1.232,1.232,0,0,0-.37.16l-.027,0,0-.05a.554.554,0,0,0,.343-.155c.037,0,.055.009.059.041Zm-1.343.374.082-.009,0,.027a.241.241,0,0,0-.082.032l-.055,0c0-.027.014-.046.05-.055Zm-.553.306.055.023c-.018.16-.069.242-.142.247a.354.354,0,0,0-.169-.037l0-.078c0-.027.014-.046.05-.055s.055.023.059.073A1.092,1.092,0,0,1,14.2,18.492ZM5.242,11.966a9.761,9.761,0,0,1-1.064.671l0,.069a.285.285,0,0,0,.105-.041c.046,0,.073.014.073.059l.073-.041.037,0,0,.032a4.1,4.1,0,0,1-.744.58l.041.064-.037,0-.078-.027c0,.023-.032.037-.105.041l0,.037.082.091a.292.292,0,0,1-.11-.023.711.711,0,0,0-.475.352l.041.064a.976.976,0,0,1,.237-.187l.009.1a.318.318,0,0,0-.105.041l.087.128a2.556,2.556,0,0,1,.543-.452c.1.027.151.055.151.091l.073,0a5.792,5.792,0,0,1,1.589-.859l0,.069c-.1.146-.164.219-.2.224a.277.277,0,0,0,.05.132,12.236,12.236,0,0,1-.712,1.8A50.859,50.859,0,0,1,2.05,20.716a.271.271,0,0,0,.041.1.956.956,0,0,0,.352-.132l.041,0,0,.069.069,0L2.63,20.7c0,.023.027.032.073.027l0,.069a.614.614,0,0,1-.119.315,1.643,1.643,0,0,0-.242.534l0,.032.069,0a4.388,4.388,0,0,0,.68-.982,10.922,10.922,0,0,0,2-.754,1.874,1.874,0,0,0,1.055-.361l0-.037-.174.05-.041,0,0-.037a1.584,1.584,0,0,0,.7-.228c.662-.511,1.16-.872,1.5-1.087,1.046-.767,1.539-1.507,1.48-2.21a4.134,4.134,0,0,0-.69-.863c-.009-.1.151-.233.47-.416l.909-.8a2.361,2.361,0,0,0,.365-1.26l-.014-.137c-.037-.406-.329-.735-.886-.986A3.438,3.438,0,0,0,8,11.217a10.815,10.815,0,0,0-2.754.749Zm4.9.059-.027.069L9.1,11.669q1.014.041,1.041.356Zm-4.1,2.813c.069-.374.146-.589.233-.639l.758-1.7c-.009-.105.151-.187.484-.242l.11-.009.009.1c.329-.05.53-.078.607-.087.6-.05.913.069.941.365l.069,0-.014-.174.073,0a.455.455,0,0,1,.283.356.533.533,0,0,1-.155.356c-.046,0-.073-.027-.078-.1l-.073,0-.018.206c-.306.457-.525.69-.662.7q-.185.253-.233.26a4.18,4.18,0,0,1-.786.585,10.239,10.239,0,0,0-1.576.612.261.261,0,0,0-.146-.023l0-.064a.846.846,0,0,1,.178-.5Zm4.2-2.1,0,.064c-.037,0-.105-.105-.206-.324l0-.064C10.092,12.4,10.161,12.514,10.234,12.738Zm-6.668.813,0,.032a.318.318,0,0,0-.105.041l-.037,0,0-.064ZM5.772,13.5l.009.1c-.032,0-.078.05-.132.146l0-.069a.339.339,0,0,0,.1-.178Zm-.338.712.014.137-.037,0L5.4,14.213Zm-.087.247c-.009.114-.037.174-.1.178l-.037,0a.349.349,0,0,0,.059-.174Zm-.151.356,0,.032-.064.11-.069,0,0-.032a.091.091,0,0,0,.1-.11l.037,0Zm-.155.32-.018.169-.037,0-.014-.169Zm3.7.123.151.091a.064.064,0,0,1-.064.078.3.3,0,0,0-.151-.059l-.009-.1Zm-2.9.388,0,.064-.142.014,0-.064Zm2.338.237c.1.046.151.091.155.128l0,.032a.3.3,0,0,1-.265-.151Zm-3.014.74a8.029,8.029,0,0,0,1.941-.575l.215-.018a1.243,1.243,0,0,1,1,.256l.014.137c-.164.475-.347.749-.543.836l-.913.726a8.928,8.928,0,0,1-1.1.676,8.172,8.172,0,0,1-2.019.927l-.041,0c.037-.128.516-1.114,1.448-2.969Zm.986-.388,0,.032-.146.014,0-.032Zm3.279-.146.023.269c-.032.073-.064.11-.1.11l-.041-.475C9.394,16.021,9.43,16.053,9.435,16.085ZM3.877,18.442c-.046.233-.1.352-.146.356l0-.032a.389.389,0,0,1,.151-.324ZM4.79,19.73a11.7,11.7,0,0,0,2.183-1.142l0,.064c0,.027-.1.114-.306.265a5.55,5.55,0,0,0-1.069.607c-.658.228-.982.37-.977.425a11,11,0,0,0-1.151.507.421.421,0,0,1-.187-.05.3.3,0,0,1,.16-.292.581.581,0,0,1,.292.046,2.82,2.82,0,0,1,.566-.183l0-.069-.215.018a3.074,3.074,0,0,1,.626-.292l.11-.009,0,.032c-.183.014-.288.073-.311.169a.06.06,0,0,0,.073.059.883.883,0,0,0,.2-.155ZM3.667,18.9l0,.032a.064.064,0,0,1-.064.078l0-.032A.068.068,0,0,1,3.667,18.9Zm1.708.466a1.621,1.621,0,0,0-.489.215l-.037,0,0-.069a.693.693,0,0,0,.448-.206C5.343,19.305,5.37,19.328,5.375,19.369ZM3.6,19.862l.11-.009,0,.037a.285.285,0,0,0-.105.041l-.069,0C3.539,19.9,3.557,19.876,3.6,19.862Zm-.726.406.078.032c-.027.206-.087.311-.192.32a.468.468,0,0,0-.224-.046l-.009-.1c0-.041.018-.064.069-.078s.073.027.078.1a1.5,1.5,0,0,1,.2-.224Zm20.259-8.974-.059-.023-.973.151a.246.246,0,0,0-.132-.023,1.782,1.782,0,0,0-.26.055l-.47.2.037.059a.232.232,0,0,0,.1-.037l.164.014-.023.155a.413.413,0,0,0-.265.3q-.343.151-.343.219l0,.027.037,0,.064-.032.073.087.009.119q.007.055-1.16,2.448-1.007,2.3-1.06,2.526c-.228.064-.365.16-.4.283,0,.041.073.064.206.078l0,.059-.059.1.009.119c0,.064.174.11.5.146,0-.023.009-.032.032-.037a1.85,1.85,0,0,1-.064.438l.037,0a.791.791,0,0,0,.2-.388l.027,0c.032,0,.069.037.11.119a4.958,4.958,0,0,0-.434.991l.037.059.037,0a7.626,7.626,0,0,1,.575-1.283c.4-.037,1.092-.105,2.078-.21l.059-.037c0,.023.014.032.037.027l.064,0,.059-.037c0,.023.014.032.037.027l.744-.064c.2-.018.292-.078.283-.178,0-.027.114-.059.352-.091a.359.359,0,0,1,.1.018c0-.018.114-.037.352-.059,0-.123.046-.192.119-.2l0-.059a1.043,1.043,0,0,0-.228.05,1.2,1.2,0,0,1-.3-.037.232.232,0,0,1-.1.037l-.521.018-.064.032c0-.018-.014-.027-.037-.023l-.027,0-.069.032c0-.018-.055-.032-.164-.046l-.064.037-.128.009,0-.032c.667-.073,1-.164.991-.274.041,0,.064.018.069.059l.2-.05,0-.059-1.6.046c0,.023-.009.032-.032.037l-.2-.018a.212.212,0,0,0-.123.046l-.073-.027a2.312,2.312,0,0,0-.452.073,3.084,3.084,0,0,0-.457,0l-.361.032-.164-.018a8.135,8.135,0,0,1,.621-1.562,1.374,1.374,0,0,1,.343-.585.27.27,0,0,1,.1.023l.256-.087.132.023a3.094,3.094,0,0,0,.767-.187.421.421,0,0,1,.164.014l.2-.046.58-.05a4.125,4.125,0,0,0,.8-.164l0-.059c-.11.009-.164-.009-.169-.05-.009-.082-.087-.114-.237-.1l0-.059.16-.046.42-.037,0-.059c-.018,0-.1,0-.26,0l0-.064.164-.014c.041,0,.064-.027.059-.064-.219,0-.329,0-.329-.032a14.318,14.318,0,0,1-2.283.041.2.2,0,0,0-.1.041L21.4,14.08a4.964,4.964,0,0,1,.708-1.292.335.335,0,0,1-.05.16l0,.027.064,0c.16-.384.292-.58.406-.589.475-.041-.069-.073.954-.233a.173.173,0,0,0,.091.023c.4-.082.959-.164,1.676-.251l0-.059-.384.037,0-.059a.2.2,0,0,0,.114-.046l0,.032a.161.161,0,0,0,.087-.041.3.3,0,0,1,.151.018,2.052,2.052,0,0,1,.32-.064l.237-.023c.059-.037.087-.069.082-.1v-.027a.879.879,0,0,1-.21-.014c0-.032.014-.055.055-.064l.443-.041.206-.05c0,.023.014.032.027.032a.161.161,0,0,0,.087-.041.845.845,0,0,0,.183.014.887.887,0,0,1,.283-.183.223.223,0,0,1-.073-.114l-.3.027a.272.272,0,0,0-.032-.091c0-.027.064-.055.2-.082l.059.023.055-.032a.023.023,0,0,0,.032.023l.055-.032a.023.023,0,0,0,.032.023l.027,0,0-.059c-.041,0-.151,0-.324,0l-.055.037,0-.032c-1.393.114-2.183.178-2.37.2-.023,0-.123,0-.292,0,0,.023-.018.037-.059.037l-.059-.027-.206.05a1.683,1.683,0,0,1-.242-.009.232.232,0,0,1-.114.046c-.046,0,1.105-.064,1.069-.082l-.178.05-.027,0a1.458,1.458,0,0,1-.274-.009.276.276,0,0,1-.146.046.2.2,0,0,1-.119-.023c-.05.014-.2.05-.443.1Zm.073.183c0,.023.023.032.059.027l0,.059-.059,0a.2.2,0,0,1-.119-.023.21.21,0,0,1-.114.046H23l-.164-.018,0-.027a1.449,1.449,0,0,0,.379-.069Zm.151-.014.032,0,0,.059-.091.009A.06.06,0,0,1,23.359,11.464Zm.352-.037,0,.032a1.21,1.21,0,0,0-.26.055l-.032,0,.027-.064.26-.027Zm-2.594.3.1-.009,0-.059-.1.009Zm.717-.064.037,0,.069.027a.053.053,0,0,1-.059.064l-.1.009,0-.032C21.77,11.692,21.793,11.674,21.834,11.66Zm2.3.132v.027l-.206.018v-.027Zm-.589.087,0,.032-.119.009,0-.032Zm.16.137c.041,0,.059.014.064.055l-.174.018,0-.059.114-.014Zm.442-.056-.118.033-.042-.026-.643.03,0,.032,1.069-.05,0-.032Zm-.739.12v.027l-.233.023V12.1Zm-1.53,1.21,0,.032.069,0a.235.235,0,0,1,.023-.1l0-.059c-.037,0-.069.046-.091.128Zm-2.352,3.416,0,.027c0,.041-.018.064-.064.069l0-.027C19.455,16.738,19.477,16.72,19.523,16.706Zm-.059.128a1.68,1.68,0,0,1-.119.443l-.1.009a1.943,1.943,0,0,1,.155-.443l.064-.009Zm1.1.954c0,.032-.05.069-.155.105l-.2-.014-.064,0,0-.059.425-.037Zm.2.018,0,.027-.164.014,0-.027Z"
                  style="fill:#fbc02d"/>
        </g>
    </symbol>

    <symbol id="icon-webpack" viewBox="0 0 128 128" xmlns="http://www.w3.org/2000/svg">
        <g>
            <path fill="#8ed6fb"
                  d="M117.29,98.1,66.24,127V104.49L98,87,117.29,98.1Zm3.5-3.16V34.55L102.11,45.35V84.16l18.67,10.77ZM10.71,98.1l51,28.88V104.49L29.94,87Zm-3.5-3.16V34.55L25.89,45.35V84.16Zm2.19-64.3L61.76,1V22.76L28.21,41.21l-.27.15Zm109.18,0L66.24,1V22.76L99.79,41.2l.27.15,18.54-10.71Z"/>
            <path fill="#1c78c0"
                  d="M61.76,99.37,30.37,82.1V47.92L61.76,66Zm4.48,0L97.63,82.12V47.92L66.24,66ZM32.5,44,64,26.66,95.5,44,64,62.16,32.5,44Z"/>
        </g>
    </symbol>

    <symbol id="icon-react" viewBox="0 0 128 128" xmlns="http://www.w3.org/2000/svg">
        <g fill="#61DAFB">
            <circle cx="64" cy="64" r="11.4"/>
            <path d="M107.3 45.2c-2.2-.8-4.5-1.6-6.9-2.3.6-2.4 1.1-4.8 1.5-7.1 2.1-13.2-.2-22.5-6.6-26.1-1.9-1.1-4-1.6-6.4-1.6-7 0-15.9 5.2-24.9 13.9-9-8.7-17.9-13.9-24.9-13.9-2.4 0-4.5.5-6.4 1.6-6.4 3.7-8.7 13-6.6 26.1.4 2.3.9 4.7 1.5 7.1-2.4.7-4.7 1.4-6.9 2.3-12.5 4.8-19.3 11.4-19.3 18.8s6.9 14 19.3 18.8c2.2.8 4.5 1.6 6.9 2.3-.6 2.4-1.1 4.8-1.5 7.1-2.1 13.2.2 22.5 6.6 26.1 1.9 1.1 4 1.6 6.4 1.6 7.1 0 16-5.2 24.9-13.9 9 8.7 17.9 13.9 24.9 13.9 2.4 0 4.5-.5 6.4-1.6 6.4-3.7 8.7-13 6.6-26.1-.4-2.3-.9-4.7-1.5-7.1 2.4-.7 4.7-1.4 6.9-2.3 12.5-4.8 19.3-11.4 19.3-18.8s-6.8-14-19.3-18.8zm-14.8-30.5c4.1 2.4 5.5 9.8 3.8 20.3-.3 2.1-.8 4.3-1.4 6.6-5.2-1.2-10.7-2-16.5-2.5-3.4-4.8-6.9-9.1-10.4-13 7.4-7.3 14.9-12.3 21-12.3 1.3 0 2.5.3 3.5.9zm-11.2 59.3c-1.8 3.2-3.9 6.4-6.1 9.6-3.7.3-7.4.4-11.2.4-3.9 0-7.6-.1-11.2-.4-2.2-3.2-4.2-6.4-6-9.6-1.9-3.3-3.7-6.7-5.3-10 1.6-3.3 3.4-6.7 5.3-10 1.8-3.2 3.9-6.4 6.1-9.6 3.7-.3 7.4-.4 11.2-.4 3.9 0 7.6.1 11.2.4 2.2 3.2 4.2 6.4 6 9.6 1.9 3.3 3.7 6.7 5.3 10-1.7 3.3-3.4 6.6-5.3 10zm8.3-3.3c1.5 3.5 2.7 6.9 3.8 10.3-3.4.8-7 1.4-10.8 1.9 1.2-1.9 2.5-3.9 3.6-6 1.2-2.1 2.3-4.2 3.4-6.2zm-25.6 27.1c-2.4-2.6-4.7-5.4-6.9-8.3 2.3.1 4.6.2 6.9.2 2.3 0 4.6-.1 6.9-.2-2.2 2.9-4.5 5.7-6.9 8.3zm-18.6-15c-3.8-.5-7.4-1.1-10.8-1.9 1.1-3.3 2.3-6.8 3.8-10.3 1.1 2 2.2 4.1 3.4 6.1 1.2 2.2 2.4 4.1 3.6 6.1zm-7-25.5c-1.5-3.5-2.7-6.9-3.8-10.3 3.4-.8 7-1.4 10.8-1.9-1.2 1.9-2.5 3.9-3.6 6-1.2 2.1-2.3 4.2-3.4 6.2zm25.6-27.1c2.4 2.6 4.7 5.4 6.9 8.3-2.3-.1-4.6-.2-6.9-.2-2.3 0-4.6.1-6.9.2 2.2-2.9 4.5-5.7 6.9-8.3zm22.2 21l-3.6-6c3.8.5 7.4 1.1 10.8 1.9-1.1 3.3-2.3 6.8-3.8 10.3-1.1-2.1-2.2-4.2-3.4-6.2zm-54.5-16.2c-1.7-10.5-.3-17.9 3.8-20.3 1-.6 2.2-.9 3.5-.9 6 0 13.5 4.9 21 12.3-3.5 3.8-7 8.2-10.4 13-5.8.5-11.3 1.4-16.5 2.5-.6-2.3-1-4.5-1.4-6.6zm-24.7 29c0-4.7 5.7-9.7 15.7-13.4 2-.8 4.2-1.5 6.4-2.1 1.6 5 3.6 10.3 6 15.6-2.4 5.3-4.5 10.5-6 15.5-13.8-4-22.1-10-22.1-15.6zm28.5 49.3c-4.1-2.4-5.5-9.8-3.8-20.3.3-2.1.8-4.3 1.4-6.6 5.2 1.2 10.7 2 16.5 2.5 3.4 4.8 6.9 9.1 10.4 13-7.4 7.3-14.9 12.3-21 12.3-1.3 0-2.5-.3-3.5-.9zm60.8-20.3c1.7 10.5.3 17.9-3.8 20.3-1 .6-2.2.9-3.5.9-6 0-13.5-4.9-21-12.3 3.5-3.8 7-8.2 10.4-13 5.8-.5 11.3-1.4 16.5-2.5.6 2.3 1 4.5 1.4 6.6zm9-15.6c-2 .8-4.2 1.5-6.4 2.1-1.6-5-3.6-10.3-6-15.6 2.4-5.3 4.5-10.5 6-15.5 13.8 4 22.1 10 22.1 15.6 0 4.7-5.8 9.7-15.7 13.4z"/>
        </g>
    </symbol>

    <symbol id="icon-redux" viewBox="0 0 128 128" xmlns="http://www.w3.org/2000/svg">
        <g>
            <path fill="none" d="M0 0h128v128H0z"/>
            <path d="M88.69 88.11c-9 18.4-24.76 30.78-45.61 34.85a39.73 39.73 0 0 1-9.77 1.14c-12 0-23-5-28.34-13.19C-2.2 100-4.64 76.87 19 59.76c.48 2.61 1.46 6.19 2.11 8.31A38.24 38.24 0 0 0 10 81.1c-4.4 8.64-3.91 17.27 1.3 25.25 3.6 5.38 9.3 8.65 16.63 9.65a44 44 0 0 0 26.55-5c12.71-6.68 21.18-14.66 26.72-25.57a9.32 9.32 0 0 1-2.61-6A9.12 9.12 0 0 1 87.37 70h.34a9.15 9.15 0 0 1 1 18.25zm28.67-20.2c12.21 13.84 12.54 30.13 7.82 39.58-4.4 8.63-16 17.27-31.6 17.27a50.48 50.48 0 0 1-21-5.05c2.29-1.63 5.54-4.24 7.33-5.87a41.54 41.54 0 0 0 16 3.42c10.1 0 17.75-4.72 22.31-13.35 2.93-5.7 3.1-12.38.33-19.22a43.61 43.61 0 0 0-17.27-20.85 62 62 0 0 0-34.74-10.59h-2.93a9.21 9.21 0 0 1-8 5.54h-.31a9.13 9.13 0 0 1-.3-18.25h.33a9 9 0 0 1 8 4.89h2.61c20.8 0 39.06 7.98 51.42 22.48zm-82.75 23a7.31 7.31 0 0 1 1.14-4.73c-9.12-15.8-14-35.83-6.51-56.68C34.61 13.83 48.13 3.24 62.79 3.24c15.64 0 31.93 13.69 33.88 40.07-2.44-.81-6-2-8.14-2.44-.53-8.63-7.82-30.13-25.09-29.81-6.19.17-15.31 3.1-20 9.12a43.69 43.69 0 0 0-9.64 25.25 59.61 59.61 0 0 0 8.47 36.16 2.75 2.75 0 0 1 1.14-.16h.32a9.12 9.12 0 0 1 .33 18.24h-.33a9.16 9.16 0 0 1-9.12-8.79z"
                  fill="#764abc"/>
        </g>
    </symbol>

    <symbol id="icon-typescript" viewBox="0 0 32 32" xmlns="http://www.w3.org/2000/svg">
        <polygon points="2 16 2 30 16 30 30 30 30 16 30 2 16 2 2 2 2 16" style="fill:#007acc"/>
        <path d="M24.564,14.884a3.485,3.485,0,0,1,1.751,1.009,4.611,4.611,0,0,1,.671.9c.009.036-1.209.853-1.947,1.311-.027.018-.133-.1-.253-.276a1.587,1.587,0,0,0-1.316-.791c-.849-.058-1.4.387-1.391,1.129a1.027,1.027,0,0,0,.12.524c.187.387.533.618,1.622,1.089,2,.862,2.862,1.431,3.4,2.24a4.063,4.063,0,0,1,.324,3.413,3.753,3.753,0,0,1-3.1,2.218,8.584,8.584,0,0,1-2.133-.022,5.145,5.145,0,0,1-2.849-1.484,4.947,4.947,0,0,1-.729-1.08,2.092,2.092,0,0,1,.258-.164c.124-.071.6-.342,1.04-.6l.8-.467L21,24.08A3.759,3.759,0,0,0,22.067,25.1a2.6,2.6,0,0,0,2.724-.138,1.217,1.217,0,0,0,.156-1.551c-.218-.311-.662-.573-1.924-1.12a6.93,6.93,0,0,1-2.636-1.622,3.692,3.692,0,0,1-.769-1.4,5.606,5.606,0,0,1-.049-1.787,3.413,3.413,0,0,1,2.871-2.658A7.092,7.092,0,0,1,24.564,14.884Zm-6.573,1.169L18,17.2H14.356V27.556H11.778V17.2H8.133V16.076a11.018,11.018,0,0,1,.031-1.156c.013-.018,2.231-.027,4.92-.022l4.893.013Z"
              style="fill:#fff"/>
    </symbol>
    <symbol id="icon-graph" viewBox="0 0 32 32" xmlns="http://www.w3.org/2000/svg">
        <rect x="-0.43" y="12.534" width="22.901" height="1.187" transform="translate(-5.858 16.107) rotate(-59.999)"
              style="fill:#e10098"/>
        <rect x="4.545" y="21.162" width="22.902" height="1.187" style="fill:#e10098"/>
        <rect x="10.43" y="18.008" width="1.187" height="13.227" transform="translate(-15.812 21.857) rotate(-59.999)"
              style="fill:#e10098"/>
        <rect x="20.381" y="0.771" width="1.187" height="13.227" transform="translate(4.092 21.856) rotate(-59.999)"
              style="fill:#e10098"/>
        <rect x="4.412" y="6.787" width="13.227" height="1.187" transform="translate(-2.213 6.502) rotate(-30.001)"
              style="fill:#e10098"/>
        <rect x="20.389" y="1.677" width="1.187" height="22.901" transform="translate(-3.753 12.25) rotate(-30.001)"
              style="fill:#e10098"/>
        <rect x="5.454" y="9.386" width="1.187" height="13.228" style="fill:#e10098"/>
        <rect x="25.36" y="9.386" width="1.187" height="13.228" style="fill:#e10098"/>
        <rect x="15.222" y="24.097" width="11.504" height="1.037" transform="translate(-9.498 13.785) rotate(-30.001)"
              style="fill:#e10098"/>
        <path d="M28.12,23a2.5,2.5,0,1,1-.915-3.411A2.5,2.5,0,0,1,28.12,23" style="fill:#e10098"/>
        <path d="M8.2,11.5a2.5,2.5,0,1,1-.915-3.411A2.5,2.5,0,0,1,8.2,11.5" style="fill:#e10098"/>
        <path d="M3.88,23a2.5,2.5,0,1,1,3.411.915A2.5,2.5,0,0,1,3.88,23" style="fill:#e10098"/>
        <path d="M23.8,11.5a2.5,2.5,0,1,1,3.411.915A2.5,2.5,0,0,1,23.8,11.5" style="fill:#e10098"/>
        <path d="M16,30a2.5,2.5,0,1,1,2.5-2.5A2.493,2.493,0,0,1,16,30" style="fill:#e10098"/>
        <path d="M16,6.991a2.5,2.5,0,1,1,2.5-2.5,2.493,2.493,0,0,1-2.5,2.5" style="fill:#e10098"/>

    </symbol>
    <symbol id="icon-node" viewBox="0 0 32 32" xmlns="http://www.w3.org/2000/svg">
        <path d="M16,30a2.151,2.151,0,0,1-1.076-.288L11.5,27.685c-.511-.286-.262-.387-.093-.446a6.828,6.828,0,0,0,1.549-.7.263.263,0,0,1,.255.019l2.631,1.563a.34.34,0,0,0,.318,0l10.26-5.922a.323.323,0,0,0,.157-.278V10.075a.331.331,0,0,0-.159-.283L16.158,3.875a.323.323,0,0,0-.317,0L5.587,9.794a.33.33,0,0,0-.162.281V21.916a.315.315,0,0,0,.161.274L8.4,23.814c1.525.762,2.459-.136,2.459-1.038V11.085a.3.3,0,0,1,.3-.3h1.3a.3.3,0,0,1,.3.3V22.777c0,2.035-1.108,3.2-3.038,3.2a4.389,4.389,0,0,1-2.363-.642L4.661,23.788a2.166,2.166,0,0,1-1.076-1.872V10.075A2.162,2.162,0,0,1,4.661,8.2L14.922,2.276a2.246,2.246,0,0,1,2.156,0L27.338,8.2a2.165,2.165,0,0,1,1.077,1.87V21.916a2.171,2.171,0,0,1-1.077,1.872l-10.26,5.924A2.152,2.152,0,0,1,16,30Z"
              style="fill:#83cd29"/>
        <path d="M14.054,17.953a.3.3,0,0,1,.3-.3h1.327a.3.3,0,0,1,.295.251c.2,1.351.8,2.032,3.513,2.032,2.161,0,3.082-.489,3.082-1.636,0-.661-.261-1.152-3.62-1.481-2.808-.278-4.544-.9-4.544-3.144,0-2.07,1.745-3.305,4.67-3.305,3.287,0,4.914,1.141,5.12,3.589a.3.3,0,0,1-.295.323H22.566a.3.3,0,0,1-.288-.232c-.319-1.421-1.1-1.875-3.2-1.875-2.36,0-2.634.822-2.634,1.438,0,.746.324.964,3.51,1.385,3.153.417,4.651,1.007,4.651,3.223,0,2.236-1.864,3.516-5.115,3.516C14.995,21.743,14.054,19.682,14.054,17.953Z"
              style="fill:#83cd29"/>
    </symbol>
    <symbol id="icon-mongodb" viewBox="0 0 128 128" xmlns="http://www.w3.org/2000/svg">
        <path fill="#439934"
              d="M88.038 42.812c1.605 4.643 2.761 9.383 3.141 14.296.472 6.095.256 12.147-1.029 18.142-.035.165-.109.32-.164.48-.403.001-.814-.049-1.208.012-3.329.523-6.655 1.065-9.981 1.604-3.438.557-6.881 1.092-10.313 1.687-1.216.21-2.721-.041-3.212 1.641-.014.046-.154.054-.235.08l.166-10.051c-.057-8.084-.113-16.168-.169-24.252l1.602-.275c2.62-.429 5.24-.864 7.862-1.281 3.129-.497 6.261-.98 9.392-1.465 1.381-.215 2.764-.412 4.148-.618z"/>
        <path fill="#45A538"
              d="M61.729 110.054c-1.69-1.453-3.439-2.842-5.059-4.37-8.717-8.222-15.093-17.899-18.233-29.566-.865-3.211-1.442-6.474-1.627-9.792-.13-2.322-.318-4.665-.154-6.975.437-6.144 1.325-12.229 3.127-18.147l.099-.138c.175.233.427.439.516.702 1.759 5.18 3.505 10.364 5.242 15.551 5.458 16.3 10.909 32.604 16.376 48.9.107.318.384.579.583.866l-.87 2.969z"/>
        <path fill="#46A037"
              d="M88.038 42.812c-1.384.206-2.768.403-4.149.616-3.131.485-6.263.968-9.392 1.465-2.622.417-5.242.852-7.862 1.281l-1.602.275-.012-1.045c-.053-.859-.144-1.717-.154-2.576-.069-5.478-.112-10.956-.18-16.434-.042-3.429-.105-6.857-.175-10.285-.043-2.13-.089-4.261-.185-6.388-.052-1.143-.236-2.28-.311-3.423-.042-.657.016-1.319.029-1.979.817 1.583 1.616 3.178 2.456 4.749 1.327 2.484 3.441 4.314 5.344 6.311 7.523 7.892 12.864 17.068 16.193 27.433z"/>
        <path fill="#409433"
              d="M65.036 80.753c.081-.026.222-.034.235-.08.491-1.682 1.996-1.431 3.212-1.641 3.432-.594 6.875-1.13 10.313-1.687 3.326-.539 6.652-1.081 9.981-1.604.394-.062.805-.011 1.208-.012-.622 2.22-1.112 4.488-1.901 6.647-.896 2.449-1.98 4.839-3.131 7.182-1.72 3.503-3.863 6.77-6.353 9.763-1.919 2.308-4.058 4.441-6.202 6.548-1.185 1.165-2.582 2.114-3.882 3.161l-.337-.23-1.214-1.038-1.256-2.753c-.865-3.223-1.319-6.504-1.394-9.838l.023-.561.171-2.426c.057-.828.133-1.655.168-2.485.129-2.982.241-5.964.359-8.946z"/>
        <path fill="#4FAA41"
              d="M65.036 80.753c-.118 2.982-.23 5.964-.357 8.947-.035.83-.111 1.657-.168 2.485l-.765.289c-1.699-5.002-3.399-9.951-5.062-14.913-2.75-8.209-5.467-16.431-8.213-24.642-2.217-6.628-4.452-13.249-6.7-19.867-.105-.31-.407-.552-.617-.826l4.896-9.002c.168.292.39.565.496.879 2.265 6.703 4.526 13.407 6.768 20.118 2.916 8.73 5.814 17.467 8.728 26.198.116.349.308.671.491 1.062l.67-.78c-.056 3.351-.112 6.701-.167 10.052z"/>
        <path fill="#4AA73C"
              d="M43.155 32.227c.21.274.511.516.617.826 2.248 6.618 4.483 13.239 6.7 19.867 2.746 8.211 5.463 16.433 8.213 24.642 1.662 4.961 3.362 9.911 5.062 14.913l.765-.289-.171 2.426-.155.559c-.266 2.656-.49 5.318-.814 7.968-.163 1.328-.509 2.632-.772 3.947-.198-.287-.476-.548-.583-.866-5.467-16.297-10.918-32.6-16.376-48.9-1.737-5.187-3.483-10.371-5.242-15.551-.089-.263-.34-.469-.516-.702 1.09-2.947 2.181-5.894 3.272-8.84z"/>
        <path fill="#57AE47"
              d="M65.202 70.702l-.67.78c-.183-.391-.375-.714-.491-1.062-2.913-8.731-5.812-17.468-8.728-26.198-2.242-6.711-4.503-13.415-6.768-20.118-.105-.314-.327-.588-.496-.879l6.055-7.965c.191.255.463.482.562.769 1.681 4.921 3.347 9.848 5.003 14.778 1.547 4.604 3.071 9.215 4.636 13.813.105.308.47.526.714.786l.012 1.045c.058 8.082.115 16.167.171 24.251z"/>
        <path fill="#60B24F"
              d="M65.021 45.404c-.244-.26-.609-.478-.714-.786-1.565-4.598-3.089-9.209-4.636-13.813-1.656-4.93-3.322-9.856-5.003-14.778-.099-.287-.371-.514-.562-.769 1.969-1.928 3.877-3.925 5.925-5.764 1.821-1.634 3.285-3.386 3.352-5.968.003-.107.059-.214.145-.514l.519 1.306c-.013.661-.072 1.322-.029 1.979.075 1.143.259 2.28.311 3.423.096 2.127.142 4.258.185 6.388.069 3.428.132 6.856.175 10.285.067 5.478.111 10.956.18 16.434.008.861.098 1.718.152 2.577z"/>
        <path fill="#A9AA88"
              d="M62.598 107.085c.263-1.315.609-2.62.772-3.947.325-2.649.548-5.312.814-7.968l.066-.01.066.011c.075 3.334.529 6.615 1.394 9.838-.176.232-.425.439-.518.701-.727 2.05-1.412 4.116-2.143 6.166-.1.28-.378.498-.574.744l-.747-2.566.87-2.969z"/>
        <path fill="#B6B598"
              d="M62.476 112.621c.196-.246.475-.464.574-.744.731-2.05 1.417-4.115 2.143-6.166.093-.262.341-.469.518-.701l1.255 2.754c-.248.352-.59.669-.728 1.061l-2.404 7.059c-.099.283-.437.483-.663.722l-.695-3.985z"/>
        <path fill="#C2C1A7"
              d="M63.171 116.605c.227-.238.564-.439.663-.722l2.404-7.059c.137-.391.48-.709.728-1.061l1.215 1.037c-.587.58-.913 1.25-.717 2.097l-.369 1.208c-.168.207-.411.387-.494.624-.839 2.403-1.64 4.819-2.485 7.222-.107.305-.404.544-.614.812-.109-1.387-.22-2.771-.331-4.158z"/>
        <path fill="#CECDB7"
              d="M63.503 120.763c.209-.269.506-.508.614-.812.845-2.402 1.646-4.818 2.485-7.222.083-.236.325-.417.494-.624l-.509 5.545c-.136.157-.333.294-.398.477-.575 1.614-1.117 3.24-1.694 4.854-.119.333-.347.627-.525.938-.158-.207-.441-.407-.454-.623-.051-.841-.016-1.688-.013-2.533z"/>
        <path fill="#DBDAC7"
              d="M63.969 123.919c.178-.312.406-.606.525-.938.578-1.613 1.119-3.239 1.694-4.854.065-.183.263-.319.398-.477l.012 3.64-1.218 3.124-1.411-.495z"/>
        <path fill="#EBE9DC" d="M65.38 124.415l1.218-3.124.251 3.696-1.469-.572z"/>
        <path fill="#CECDB7"
              d="M67.464 110.898c-.196-.847.129-1.518.717-2.097l.337.23-1.054 1.867z"/>
        <path fill="#4FAA41"
              d="M64.316 95.172l-.066-.011-.066.01.155-.559-.023.56z"/>

    </symbol>
</svg>